<svg width="30" height="23" viewBox="0 0 30 23" fill="none" xmlns="http://www.w3.org/2000/svg">
<path d="M15.9375 15.8125C15.6938 15.8125 15.4594 15.7406 15.2719 15.6041C14.9063 15.3237 14.9063 14.8709 15.2719 14.5906L19.3031 11.5L15.2813 8.41656C14.9156 8.13625 14.9156 7.68343 15.2813 7.40312C15.6469 7.12281 16.2375 7.12281 16.6031 7.40312L21.2906 10.9969C21.6563 11.2772 21.6563 11.73 21.2906 12.0103L16.6031 15.6041C16.4156 15.7406 16.1813 15.8125 15.9375 15.8125Z" fill="white"/>
<path d="M10.3125 15.8125C10.0688 15.8125 9.8344 15.7406 9.6469 15.6041C9.28127 15.3237 9.28127 14.8709 9.6469 14.5906L13.6781 11.5L9.65627 8.41656C9.29065 8.13625 9.29065 7.68343 9.65627 7.40312C10.0219 7.12281 10.6125 7.12281 10.9781 7.40312L15.6656 10.9969C16.0313 11.2772 16.0313 11.73 15.6656 12.0103L10.9781 15.6041C10.7906 15.7406 10.5563 15.8125 10.3125 15.8125Z" fill="white"/>
</svg>
