<svg width="30" height="59" viewBox="0 0 30 59" fill="none" xmlns="http://www.w3.org/2000/svg">
<path d="M1.11278 30.5162C1.38762 30.5162 1.67303 30.4017 1.88445 30.1728L28.7344 2.07467C29.1784 1.61685 29.189 0.850021 28.7661 0.369319C28.3433 -0.111382 27.6351 -0.122827 27.1911 0.334984L0.341103 28.4331C-0.102873 28.8909 -0.113443 29.6578 0.309391 30.1385C0.531379 30.4017 0.816792 30.5162 1.11278 30.5162Z" fill="#E1E1E1"/>
<path d="M27.9627 58.6148C28.2587 58.6148 28.5441 58.4889 28.7661 58.2486C29.189 57.7679 29.1784 57.001 28.7344 56.5432L1.88445 28.4451C1.44047 27.9873 0.732225 27.9987 0.309391 28.4794C-0.113443 28.9601 -0.102873 29.727 0.341103 30.1848L27.1911 58.2829C27.4025 58.5004 27.6879 58.6148 27.9627 58.6148Z" fill="#E1E1E1"/>
</svg>
