<svg width="30" height="59" viewBox="0 0 30 59" fill="none" xmlns="http://www.w3.org/2000/svg">
<path d="M28.6619 30.8722C28.3886 30.8722 28.1048 30.758 27.8946 30.5296L1.19609 2.4973C0.754622 2.04056 0.744108 1.27552 1.16456 0.795945C1.58501 0.316369 2.28926 0.304951 2.73073 0.761689L29.4293 28.794C29.8707 29.2508 29.8812 30.0158 29.4608 30.4954C29.2401 30.758 28.9562 30.8722 28.6619 30.8722Z" fill="#E1E1E1"/>
<path d="M1.96332 58.9048C1.66901 58.9048 1.3852 58.7792 1.16447 58.5394C0.744017 58.0599 0.75453 57.2948 1.196 56.8381L27.8945 28.8058C28.336 28.349 29.0402 28.3604 29.4607 28.84C29.8811 29.3196 29.8706 30.0846 29.4292 30.5414L2.73064 58.5737C2.52041 58.7906 2.23661 58.9048 1.96332 58.9048Z" fill="#E1E1E1"/>
</svg>
