<svg width="58" height="54" viewBox="0 0 58 54" fill="none" xmlns="http://www.w3.org/2000/svg">
<path d="M28.9429 53.2211C20.4941 53.2211 12.0453 53.2211 3.60787 53.2211C1.37008 53.2211 0 51.9645 0 49.9159C0 34.372 0 18.8386 0 3.3052C0 1.27773 1.37008 0 3.55079 0C20.5169 0 37.4831 0 54.4606 0C56.6071 0 58 1.27773 58 3.2524C58 18.828 58 34.3931 58 49.9687C58 51.9222 56.6071 53.2211 54.5063 53.2211C45.989 53.2211 37.4602 53.2211 28.9429 53.2211ZM29 1.47836C20.5512 1.47836 12.1024 1.47836 3.65354 1.47836C2.24921 1.47836 1.59843 2.08027 1.59843 3.37912C1.59843 18.8703 1.59843 34.3508 1.59843 49.842C1.59843 51.1408 2.24921 51.7427 3.65354 51.7427C20.5512 51.7427 37.4488 51.7427 54.3465 51.7427C55.7508 51.7427 56.4016 51.1408 56.4016 49.842C56.4016 34.3508 56.4016 18.8703 56.4016 3.37912C56.4016 2.08027 55.7508 1.47836 54.3465 1.47836C45.8976 1.47836 37.4488 1.47836 29 1.47836Z" fill="white"/>
<path d="M48.6378 26.5893C48.6378 29.1553 48.5807 31.7319 48.6492 34.2979C48.7634 38.9231 45.4752 42.5028 41.3421 43.9707C39.8921 44.4881 38.3736 44.7415 36.8209 44.7521C31.626 44.7626 26.4311 44.7943 21.2362 44.7415C17.3087 44.7098 14.0205 43.3371 11.5543 40.4543C10.1158 38.7753 9.38505 36.8323 9.38505 34.6886C9.36222 29.3243 9.36222 23.9599 9.38505 18.585C9.40789 14.4773 12.2851 10.7814 16.5323 9.2819C18.1307 8.72224 19.7862 8.43712 21.4988 8.44768C26.6024 8.44768 31.6945 8.416 36.798 8.45824C40.7484 8.48992 44.048 9.88381 46.5142 12.7877C47.9185 14.4456 48.6264 16.3569 48.6378 18.4583C48.6492 21.1722 48.6378 23.886 48.6378 26.5893ZM45.7264 26.6104C45.7264 23.9494 45.7264 21.2989 45.7264 18.6378C45.7264 17.2228 45.3154 15.9134 44.4477 14.7624C42.5866 12.3125 39.9606 11.1932 36.7866 11.1721C31.6146 11.151 26.4425 11.1615 21.2591 11.1615C19.615 11.1615 18.0394 11.4783 16.6122 12.2386C13.9063 13.6748 12.3421 15.7656 12.3421 18.7329C12.3421 24.0127 12.3421 29.2926 12.3421 34.5725C12.3421 36.3782 13.0043 37.9516 14.3288 39.2716C16.2012 41.1512 18.576 42.0171 21.3047 42.0277C26.3055 42.0488 31.3063 42.0488 36.3185 42.0171C37.3575 42.0065 38.4193 41.9221 39.4126 41.6792C43.0091 40.8133 45.8177 37.9938 45.7492 34.3085C45.6807 31.753 45.7264 29.187 45.7264 26.6104Z" fill="white"/>
<path d="M29.0685 34.3402C23.9307 34.3402 19.8547 30.6126 19.8547 25.924C19.8547 21.2989 23.9763 17.5396 29.057 17.5291C34.1606 17.5291 38.2822 21.2883 38.2708 25.9557C38.2594 30.6126 34.172 34.3296 29.0685 34.3402ZM35.3366 25.9557C35.348 22.7984 32.5279 20.2218 29.0685 20.2218C25.609 20.2218 22.7775 22.7878 22.7775 25.9452C22.7775 29.0814 25.5748 31.6369 29.0228 31.658C32.4937 31.6791 35.3252 29.1236 35.3366 25.9557Z" fill="white"/>
<path d="M41.2622 16.9062C41.228 17.9305 40.3603 18.7224 39.287 18.6908C38.2138 18.6697 37.3461 17.7826 37.3918 16.7689C37.4374 15.7552 38.3166 14.9632 39.3784 14.9843C40.4859 15.0054 41.2965 15.8396 41.2622 16.9062Z" fill="white"/>
</svg>
