<svg width="58" height="54" viewBox="0 0 58 54" fill="none" xmlns="http://www.w3.org/2000/svg">
<g clip-path="url(#clip0_48_22)">
<path fill-rule="evenodd" clip-rule="evenodd" d="M36.3386 42.6138L33.0166 37.1066C32.8318 36.8117 32.6826 36.6424 32.578 36.546L32.4622 36.4584L32.4132 36.6073L31.6562 41.0399L31.5293 41.9568C31.3155 42.9029 30.848 43.8694 29.895 44.1118L29.3094 44.1614H25.4686C18.6376 44.1614 12.4701 31.4038 8.15282 15.5101L8.12165 15.3611C7.9747 14.4063 7.90122 13.3463 8.25747 12.4937C8.66715 11.5096 9.45089 11.1942 10.2725 11.1621L16.175 11.2147C16.5402 11.2176 16.8631 11.53 16.9677 11.9885C18.2947 17.7088 19.9245 21.2041 21.9173 25.19L21.973 25.3185C22.1889 25.9141 22.6409 25.7448 22.8747 25.2717L23.0172 24.7198L23.0194 15.7407C23.0194 14.4209 22.5608 14.234 21.4475 14.0267C20.9376 13.9303 20.6148 13.2558 20.7706 12.6134C21.3072 10.3825 23.0684 9.24074 25.5109 9.24074L27.762 9.17065C29.5833 9.17065 31.2332 10.1956 31.2332 13.2499V25.0615L31.3935 25.1783C31.6918 25.3155 32.2774 25.3447 32.7517 24.3694C34.7978 20.5851 37.1558 16.0649 37.4875 13.7025C37.5009 13.6062 37.5231 13.5157 37.5543 13.4281C37.9707 12.2805 39.1084 11.4716 39.5671 11.2877C39.6317 11.2614 39.7608 11.2118 39.9122 11.2118L46.0597 11.2176L46.4404 11.2234C46.5852 11.2468 46.7277 11.2877 46.8657 11.3519C47.2353 11.5271 47.4958 11.8454 47.6673 12.2075C48.0035 12.9258 47.9567 13.7318 47.9901 14.053C48.0035 14.161 48.0035 14.272 47.9901 14.3829C47.4134 19.1134 43.2654 24.4162 41.522 27.856C41.0745 28.6648 41.0678 29.2693 41.4841 29.9321L47.2709 39.431C47.9389 40.6837 47.9033 42.0532 47.193 43.0314C46.7299 43.6709 46.0575 44.0271 45.3472 44.1352L44.6792 44.1614H38.5295L38.6386 44.1527C37.8304 44.2928 37.2025 43.8548 36.7305 43.2329L36.3386 42.6138ZM38.5295 41.9714L44.7193 41.9743C45.3717 42.024 45.8103 41.7612 45.984 41.5217C46.0441 41.44 46.1265 41.3086 46.0463 41.0253L45.9127 40.707L40.1861 31.3133C39.2042 29.7452 39.3645 28.0312 40.1482 26.6091C41.807 23.3357 45.3695 18.6579 46.2089 14.7976L46.3224 14.1376L46.2935 13.7201L46.249 13.4018H46.0775H40.0213L39.8231 13.5244C39.6361 13.6617 39.4046 13.8748 39.2398 14.0792L39.0728 14.3508L38.8657 15.3232C38.1532 17.9366 36.3698 21.426 34.8491 24.2702L34.1165 25.6251L33.6534 26.3726C32.4244 27.9406 30.6075 27.6545 29.8661 26.3463C29.6902 26.0368 29.5632 25.6397 29.5632 25.1841V13.2499C29.5632 11.8366 29.0734 11.3607 27.782 11.3607L25.531 11.4308C24.4467 11.4308 23.7074 11.6731 23.2131 12.0235L22.9393 12.2571L23.133 12.3477C23.9568 12.8295 24.6893 13.7697 24.6893 15.7437L24.6827 24.8629C24.5224 27.71 21.8683 28.9627 20.6816 26.7522L20.5213 26.3901C18.7489 22.8481 17.2015 19.5718 15.9079 14.78L15.5628 13.3989L10.2881 13.3551C9.7448 13.3726 9.71362 13.5653 9.72253 13.5449C9.68691 13.6266 9.6446 13.8486 9.68468 14.342L9.74925 14.8589L10.5731 17.7731C14.8859 32.4141 20.3454 41.9714 25.4686 41.9714L29.345 41.9743C29.8705 42.0094 29.9841 41.2414 30.0108 40.7216L30.0308 40.564L30.8012 36.0408L30.8235 35.9299C30.9303 35.5123 31.0951 35.1064 31.3489 34.7911C31.694 34.3618 32.1416 34.1691 32.6136 34.2508C33.2727 34.3647 33.8493 34.9809 34.3191 35.7313L37.6745 41.3027C38.0197 41.951 38.2468 42.0123 38.4182 41.9831L38.5295 41.9714Z" fill="white"/>
<path fill-rule="evenodd" clip-rule="evenodd" d="M-0.999878 48.9998V4.26044C-0.999878 1.50258 1.37319 -0.739746 4.29723 -0.739746H51.703C54.6246 -0.739746 57.0001 1.50258 57.0001 4.26044V48.9998C57.0001 51.7599 54.6246 54 51.703 54H4.29723C1.37319 54 -0.999878 51.7599 -0.999878 48.9998ZM55.1877 48.9998V4.26044C55.1877 2.44924 53.6218 0.971086 51.703 0.971086H4.29723C2.37606 0.971086 0.812546 2.44924 0.812546 4.26044V48.9998C0.812546 50.8133 2.37606 52.2892 4.29723 52.2892H51.703C53.6218 52.2892 55.1877 50.8133 55.1877 48.9998Z" fill="white"/>
</g>
<defs>
<clipPath id="clip0_48_22">
<rect width="58" height="54" fill="white" transform="translate(0.00012207)"/>
</clipPath>
</defs>
</svg>
