<svg width="60" height="55" viewBox="0 0 60 55" fill="none" xmlns="http://www.w3.org/2000/svg">
<path fill-rule="evenodd" clip-rule="evenodd" d="M42.4892 35.8759C43.0156 34.5458 43.0156 33.4144 42.8618 33.1752C42.7071 32.9317 42.2845 32.7978 41.6449 32.5097C41.0043 32.2216 37.8884 30.851 37.3026 30.6682C36.7262 30.4736 36.1715 30.5427 35.7357 31.0902C35.1225 31.8568 34.5187 32.6352 34.0329 33.1061C33.6509 33.4709 33.0197 33.5155 32.4981 33.3209C31.7887 33.0614 29.818 32.4406 27.3841 30.5064C25.4993 29.0095 24.2182 27.1444 23.8456 26.5808C23.4777 26.0088 23.8097 25.6761 24.105 25.3678C24.4229 25.0148 24.7314 24.7638 25.054 24.431C25.3719 24.0983 25.5531 23.9281 25.7578 23.5389C25.9757 23.1615 25.821 22.7723 25.6672 22.4842C25.5125 22.2003 24.2314 19.4061 23.705 18.2747C23.2824 17.37 22.9645 17.3338 22.3239 17.3136C22.106 17.3009 21.8608 17.2891 21.5928 17.2891C20.7617 17.2891 19.8901 17.5082 19.3637 17.9866C18.7231 18.5704 17.1336 19.9334 17.1336 22.7235C17.1336 25.5177 19.4127 28.2193 19.7222 28.5959C20.0448 28.9733 24.1682 34.7892 30.5717 37.1572C35.5857 39.0105 37.0715 38.8403 38.211 38.6213C39.878 38.3012 41.9628 37.2019 42.4892 35.8759ZM29.8048 8.38745C41.8213 8.38745 51.6001 17.119 51.6001 27.8537C51.6001 38.5851 41.8213 47.3208 29.8048 47.3208C25.3719 47.3208 21.2617 46.1406 17.8147 44.1045L9.43483 46.4936L12.1508 39.2624C9.53483 36.0587 7.99998 32.1078 7.99998 27.8495C7.99998 22.4842 10.4433 17.6177 14.3903 14.093C18.3364 10.5693 23.7824 8.38745 29.7906 8.38745H29.8048Z" stroke="white" stroke-width="2"/>
<path fill-rule="evenodd" clip-rule="evenodd" d="M55 54H5C2.791 54 1 52.3634 1 50.3448V4.65517C1 2.6366 2.791 1 5 1H55C57.209 1 59 2.6366 59 4.65517V50.3448C59 52.3634 57.209 54 55 54Z" stroke="white" stroke-width="2" stroke-linejoin="round"/>
</svg>
