<svg width="58" height="54" viewBox="0 0 58 54" fill="none" xmlns="http://www.w3.org/2000/svg">
<path d="M29.0227 0C37.4829 0 45.9546 0 54.4148 0C56.6298 0 57.9999 1.27713 57.9999 3.35248C57.9999 18.9974 57.9999 34.6316 57.9999 50.2765C57.9999 52.3838 56.6412 53.6396 54.3806 53.6396C37.4487 53.6396 20.5168 53.6396 3.58492 53.6396C1.35854 53.6396 -0.00012207 52.3625 -0.00012207 50.2872C-0.00012207 34.6423 -0.00012207 19.008 -0.00012207 3.36312C-0.00012207 1.25585 1.35854 0 3.61917 0C12.0908 0 20.5511 0 29.0227 0ZM28.9428 52.1497C37.4144 52.1497 45.8747 52.1497 54.3463 52.1497C55.7507 52.1497 56.4015 51.543 56.4015 50.234C56.4015 34.621 56.4015 19.0187 56.4015 3.40569C56.4015 2.09663 55.7507 1.48999 54.3463 1.48999C37.4487 1.48999 20.5511 1.48999 3.65342 1.48999C2.24909 1.48999 1.5983 2.09663 1.5983 3.40569C1.5983 19.0187 1.5983 34.621 1.5983 50.234C1.5983 51.543 2.24909 52.1497 3.65342 52.1497C12.0794 52.1497 20.5168 52.1497 28.9428 52.1497Z" fill="white"/>
<path d="M29.1027 14.719C33.1673 14.8574 37.2205 14.9638 41.2622 15.1234C44.0366 15.2405 45.6579 16.5815 46.1031 19.2103C46.3657 20.7428 46.5027 22.3073 46.5598 23.8611C46.6626 26.7879 46.6512 29.7147 46.2516 32.6202C46.0917 33.7909 45.7949 34.9296 44.9842 35.8769C43.9681 37.0476 42.5409 37.3668 41.011 37.4413C34.5716 37.7713 28.1208 37.8564 21.6815 37.6116C19.7976 37.5371 17.9252 37.4413 16.0527 37.2498C14.2374 37.0688 12.9929 36.1216 12.3878 34.472C11.8512 33.0246 11.7827 31.524 11.6799 30.0233C11.4744 26.6921 11.4972 23.3609 11.9083 20.0404C12.011 19.1783 12.285 18.295 12.6618 17.4968C13.4496 15.7939 15.0594 15.1979 16.909 15.1234C20.985 14.9638 25.0496 14.8467 29.1027 14.719ZM25.4834 30.5022C28.6575 28.9697 31.7401 27.4797 34.9142 25.9471C31.7059 24.3826 28.6232 22.8927 25.4834 21.3601C25.4834 24.4252 25.4834 27.4158 25.4834 30.5022Z" fill="white"/>
</svg>
